<svg xmlns="http://www.w3.org/2000/svg" viewBox="0 0 465.71 465.71"><defs><style>.cls-1{fill:#a5dcf0;}.cls-2{fill:#d8edee;}.cls-3{fill:#fff;}</style></defs><g id="Layer_2" data-name="Layer 2"><g id="Layer_1-2" data-name="Layer 1"><path class="cls-1" d="M232.85,0C104.25,0,0,104.25,0,232.85S104.25,465.71,232.85,465.71,465.71,361.46,465.71,232.85,361.46,0,232.85,0Z"/><path class="cls-2" d="M419.75,371.76a34.72,34.72,0,0,0-66.2-14.05,29.93,29.93,0,0,0-44.09,4.77,34.92,34.92,0,0,0-6-1.81,33.79,33.79,0,1,0,4.91,64.9c0,.13-.06.25-.08.38a32.32,32.32,0,0,0,5.5,25.31A233.36,233.36,0,0,0,419.75,371.76Z"/><path class="cls-2" d="M76.12,385.46a27.44,27.44,0,1,0,18-51.2c.2-.35.41-.7.6-1.06A28.52,28.52,0,0,0,57.8,293.84,25,25,0,0,0,19,282.15a23.93,23.93,0,0,0-7-5.54A24.2,24.2,0,0,0,3.62,274,232.1,232.1,0,0,0,56.48,384.89a24.84,24.84,0,0,0,11.85-5.59A27.41,27.41,0,0,0,76.12,385.46Zm-31-48.64c0-.8-.06-1.62-.14-2.42.42.72.89,1.41,1.38,2.09C45.93,336.59,45.52,336.7,45.11,336.82Z"/><polygon class="cls-2" points="222.21 236.31 191.92 407.83 285.8 402.17 250.07 234.52 222.21 236.31"/><path class="cls-2" d="M302.51,391.39A15.6,15.6,0,0,0,295,372.22a22.82,22.82,0,1,0-38.5-23,23,23,0,0,0-1.05,4,25.24,25.24,0,0,0-3.13-1.4A24.34,24.34,0,0,0,230.53,395a21,21,0,0,0-1.36,31.05,23.68,23.68,0,1,0,43.59,7.46l.26.1a22.72,22.72,0,0,0,25.2-35.9A15.59,15.59,0,0,0,302.51,391.39Z"/><path class="cls-2" d="M435.5,283a23.83,23.83,0,0,0-2.15,3.48,22.12,22.12,0,0,0-2.56-2.23,24.08,24.08,0,0,0-33.07,34.55,20.76,20.76,0,0,0-10.24,29,23.43,23.43,0,0,0,18.73,40.55A232.12,232.12,0,0,0,461.8,275.49,22.59,22.59,0,0,0,435.5,283Z"/><path class="cls-2" d="M211.69,364.84a21.34,21.34,0,0,0,2.72-5.71c3-10-1.69-20.32-10.57-23-8-2.44-16.72,2.19-20.54,10.51-7.48-.23-14.74,5.2-17.28,13.56-2.06,6.8-.45,13.74,3.64,18.22a13.68,13.68,0,0,0-8,8.94c-2.12,7,1.17,14.16,7.36,16a9.68,9.68,0,0,0,1.65.34,1.21,1.21,0,0,0,0,.14c-2.28,7.51,1.27,15.24,7.93,17.26s13.91-2.43,16.18-9.94a15.62,15.62,0,0,0,.68-4.06l.51.17c10.64,3.24,22.23-3.88,25.88-15.89C225.09,380.43,220.62,369.16,211.69,364.84Z"/><path class="cls-2" d="M181.61,433.75a34.34,34.34,0,0,0,6.29.43A33.79,33.79,0,1,0,168.71,372v-.39a32.41,32.41,0,0,0-60.83-14.67,22.23,22.23,0,0,0-32.16,17.6,32.52,32.52,0,0,0-26.33,1.74,233.42,233.42,0,0,0,104.24,75.62c.42,0,.84,0,1.27,0A29.94,29.94,0,0,0,181.61,433.75Z"/><path class="cls-3" d="M413.58,379.68a35.17,35.17,0,0,0-7.68-4.74,34.74,34.74,0,0,0-41.65,10.35,29.92,29.92,0,0,0-44-5.22,34.51,34.51,0,0,0-5.48-3.11A33.78,33.78,0,1,0,305,441.31c-.06.12-.12.23-.17.35A32.27,32.27,0,0,0,302,455.28,233.14,233.14,0,0,0,413.58,379.68Z"/><path class="cls-3" d="M84.75,403.41l.35-.18a32.4,32.4,0,0,0-14.37-60.9,22.24,22.24,0,0,0-30.24-20.74A32.54,32.54,0,0,0,7.81,292.84a233.16,233.16,0,0,0,92.65,131.57,34.36,34.36,0,0,0-3.08-7.92A33.56,33.56,0,0,0,84.75,403.41Z"/><polygon class="cls-3" points="225.94 268.77 202.45 388.74 275.26 384.78 247.56 267.51 225.94 268.77"/><path class="cls-3" d="M272.76,450.65l.26.09a22.71,22.71,0,0,0,25.2-35.89,15.59,15.59,0,0,0-3.22-25.5,22.82,22.82,0,1,0-38.5-23,23.37,23.37,0,0,0-1.05,4,25.24,25.24,0,0,0-3.13-1.4,24.34,24.34,0,0,0-21.79,43.15,21,21,0,0,0-1.36,31.05,23.64,23.64,0,0,0-.91,22.46c1.53,0,3.06.06,4.59.06a234,234,0,0,0,39.25-3.31A23.46,23.46,0,0,0,272.76,450.65Z"/><path class="cls-3" d="M453.23,295.48a24.11,24.11,0,0,0-18.16,23.59,20.74,20.74,0,0,0-26.16,16.17,24.06,24.06,0,0,0-4.32.67A23.43,23.43,0,0,0,411.65,382a232.22,232.22,0,0,0,45.71-87.21A23.84,23.84,0,0,0,453.23,295.48Z"/><path class="cls-3" d="M216.83,376.84a21.15,21.15,0,0,0,.48-6.3c-.77-10.44-8.9-18.35-18.15-17.66-8.38.61-14.8,8.06-15.38,17.2-7.06,2.47-11.88,10.15-11.24,18.87a18.94,18.94,0,0,0,10,15.69,13.71,13.71,0,0,0-4.29,11.24c.54,7.27,6.2,12.78,12.65,12.31a12.77,12.77,0,0,0,1.66-.27v.14c.58,7.83,6.67,13.76,13.61,13.25s12.1-7.27,11.53-15.1a16.48,16.48,0,0,0-.83-4l.53,0c11.1-.81,19.35-11.62,18.43-24.14C234.94,386.56,226.71,377.66,216.83,376.84Z"/><path class="cls-3" d="M201.75,462.21A33.79,33.79,0,1,0,182.57,400c0-.13,0-.25,0-.39A32.4,32.4,0,0,0,121.74,385a22.23,22.23,0,0,0-32.16,17.6A32.38,32.38,0,0,0,72,401.2a232.14,232.14,0,0,0,123.08,61.44c.13-.29.28-.57.4-.86A34.46,34.46,0,0,0,201.75,462.21Z"/><path class="cls-3" d="M309.06,435.58a33.6,33.6,0,0,0-17.38,5.36c0-.13,0-.26,0-.39a32.4,32.4,0,0,0-60.82-14.68,22.23,22.23,0,0,0-32.16,17.61,32.55,32.55,0,0,0-37.27,11,233.5,233.5,0,0,0,170.46-10.88A33.66,33.66,0,0,0,309.06,435.58Z"/><path class="cls-3" d="M380.81,118.4a10.87,10.87,0,0,0-2.57.82,13.3,13.3,0,0,0-15.79-12,13.24,13.24,0,0,0-9,6.49,11.87,11.87,0,0,0-20.14,6.18,13.43,13.43,0,0,0-4.77,0,13.17,13.17,0,0,0-10.32,10h76.43a12.23,12.23,0,0,0-.21-2.4A11.61,11.61,0,0,0,380.81,118.4ZM354.4,129.2a5.6,5.6,0,0,0,.36-.49c.25.3.51.58.78.86C355.17,129.43,354.79,129.31,354.4,129.2Z"/><path class="cls-3" d="M135.45,168.85a8.92,8.92,0,0,0-2,.65,9.45,9.45,0,0,0-.16-1.19,10.37,10.37,0,0,0-19.2-3.13A9.26,9.26,0,0,0,98.36,170a10.27,10.27,0,0,0-11.78,7.88h59.67a9.26,9.26,0,0,0-.17-1.88A9.07,9.07,0,0,0,135.45,168.85Zm-20.62,8.44c.1-.12.19-.25.28-.38.19.23.4.45.61.67C115.43,177.47,115.13,177.38,114.83,177.29Z"/></g></g></svg>