<svg xmlns="http://www.w3.org/2000/svg" viewBox="0 0 241.44 127.13"><g id="Layer_2" data-name="Layer 2"><g id="Audiência"><g id="Laptop"><rect x="19.65" width="202.14" height="125.5" rx="14.89" style="fill:#113856"/><rect x="24.76" y="7.91" width="191.93" height="110.96" rx="14.89" style="fill:#2e8ba8"/><circle cx="120.72" cy="3.83" r="1.56" style="fill:#2e8ba8"/><path d="M203.21,7.91h-165A13.47,13.47,0,0,0,24.76,21.38v84a13.42,13.42,0,0,0,1.51,6.19L213.82,13.11A13.41,13.41,0,0,0,203.21,7.91Z" style="fill:#fff;opacity:0.05"/><path d="M0,110.51H241.44a0,0,0,0,1,0,0v2a14.61,14.61,0,0,1-14.61,14.61H14.61A14.61,14.61,0,0,1,0,112.53v-2a0,0,0,0,1,0,0Z" style="fill:#788695"/><path d="M0,110.51H241.44a0,0,0,0,1,0,0v1.89a13.66,13.66,0,0,1-13.66,13.66H13.66A13.66,13.66,0,0,1,0,112.4v-1.89a0,0,0,0,1,0,0Z" style="fill:#d2dae2"/><path d="M108.42,110.51H133a0,0,0,0,1,0,0v.43a3.12,3.12,0,0,1-3.12,3.12H111.54a3.12,3.12,0,0,1-3.12-3.12v-.43a0,0,0,0,1,0,0Z" style="fill:#788695"/></g><g id="VideoLogo"><rect x="63.61" y="25.22" width="108.55" height="67.94" style="fill:#fd695c"/><rect x="68.1" y="27.93" width="14.33" height="8.1" style="fill:#81443c"/><rect x="68.1" y="40.95" width="14.33" height="8.1" style="fill:#81443c"/><rect x="68.1" y="53.98" width="14.33" height="8.1" style="fill:#81443c"/><rect x="68.1" y="67" width="14.33" height="8.1" style="fill:#81443c"/><rect x="68.1" y="80.02" width="14.33" height="8.1" style="fill:#81443c"/><rect x="152.68" y="27.93" width="14.33" height="8.1" style="fill:#81443c"/><rect x="152.68" y="40.95" width="14.33" height="8.1" style="fill:#81443c"/><rect x="152.68" y="53.98" width="14.33" height="8.1" style="fill:#81443c"/><rect x="152.68" y="67" width="14.33" height="8.1" style="fill:#81443c"/><rect x="152.68" y="80.02" width="14.33" height="8.1" style="fill:#81443c"/><polygon points="128.06 58.52 105.96 69.57 105.96 47.47 128.06 58.52 128.06 58.52" style="fill:#fff"/><rect x="63.61" y="25.22" width="108.55" height="32.8" style="fill:#fff;opacity:0.1"/></g></g></g></svg>