<svg xmlns="http://www.w3.org/2000/svg" viewBox="0 0 1642.4 846.69"><g id="Layer_2" data-name="Layer 2"><g id="Layer_1-2" data-name="Layer 1"><path d="M544.3,395.49a3,3,0,0,1,.18,6H415.4C340.88,401.49,288,460.78,296,534.58l.27,2.24,24.4,194.6a3,3,0,0,1-5.93.92l0-.18-24.4-194.6c-9.73-77.62,45.08-140.79,122.72-142l2.36,0Z" style="fill:#ff073a;fill-rule:evenodd"/><path d="M632.76,332.72a3,3,0,0,1,3.1,1.58l3.5,6.7a3,3,0,0,1,.28.77l0,.21,4.2,30.2a3,3,0,0,1-.41,2l-.12.17-16,22.5a3,3,0,0,1-5-3.32l.1-.16,15.31-21.53-4-28.5L631.53,339l-.32,0c-39,6.09-63.37,17.22-74.55,32.5l-.34.47c-9.72,13.69-9,30.88,1.16,51.15a3,3,0,0,1-2.11,4.29C489.52,440.3,435.93,495.52,404,574.81c-28.81,71.44-35.29,152.77-16.63,205l3,8.56c6.41,18,10.3,26.78,16.08,34.56,7.44,10,16.66,15.07,29.39,15.19a3,3,0,1,1-.06,6c-14.68-.14-25.62-6.15-34.14-17.6l-.48-.66c-5.83-8-9.78-16.87-15.93-34l-3.42-9.65c0-.12-.08-.24-.13-.36-19.19-53.72-12.6-136.53,16.72-209.23,32-79.38,85.51-135.44,151.76-150.17l.29-.07-.2-.44c-9.11-20.23-9.32-38.16.86-52.89l.33-.47C563.81,351.08,590.49,339,632.76,332.72Z" style="fill:#ff073a;fill-rule:evenodd"/><path d="M670.5,476v-.6c4.7.5,9.3.5,13.8-3.3,11-9.5,14.9-12.4,14.9-12.4s1,1.2,2.8,3.2c2.2-4,4.4-8.2,6.7-12.4-47.5-36.8-83.8-55.4-83.8-55.4l-2.7-1.9-17.4,21.3S633.2,434,670.5,476Z" style="fill:#fce166;fill-rule:evenodd"/><path d="M900.1,821.19s-76-204.4-66.3-267.7c5.3-34.6-3-73.7-14.4-104l-21.8,1.4-26.1,61.6a45.91,45.91,0,0,0,5.1,1s-1,6.5-3.5,21.3c-1.7,9.9,1.2,11,3.4,17.9,2.9,4.6,5.1,9.8,2.7,17.9-.8,2.6-2.7,27.4-7,61q12,25.35,22.8,54.1C841.1,808.59,836.3,822,836.3,822Z" style="fill:#fce166;fill-rule:evenodd"/><path d="M804.26,339.62a3,3,0,0,1,3.81-1.87c30.39,10.41,51.6,26.85,65.44,48.32,10,15.55,15.37,31.74,18.91,52.21l.14.84,2,1.55c96.81,74.14,166,157.75,212,245.47l1.4,2.68A578.82,578.82,0,0,1,1147.61,785,389.47,389.47,0,0,1,1160.47,839a3,3,0,0,1-5.94.9l-.23-1.49a387.81,387.81,0,0,0-12.43-51.73,571.1,571.1,0,0,0-39.25-95.14c-46-88.81-116-173.49-214.63-248.4a2.93,2.93,0,0,1-1.15-1.9c-3.41-20.69-8.54-36.71-18.37-52-13.11-20.32-33.22-35.92-62.34-45.89A3,3,0,0,1,804.26,339.62Z" style="fill:#ff073a;fill-rule:evenodd"/><path d="M852.05,538.79a4,4,0,0,1,3.85,4V543l0,.66c0,.61,0,1.32,0,2.14a453.34,453.34,0,0,0,4.72,75.87,233.89,233.89,0,0,0,7.09,32.15,4,4,0,0,1-7.66,2.34,242.65,242.65,0,0,1-7.34-33.27,459.4,459.4,0,0,1-4.83-75.95l.06-2.84,0-1.46a4,4,0,0,1,4-3.85Z" style="fill:#ff073a;fill-rule:evenodd"/><path d="M886.8,440c.7,4.3,1.3,8.2,1.8,11.6,6.1,39.8-7,66.3-15.7,84.6,23.3-16.5,39.1-47.9,47-71.8C910.4,456.79,897.3,447.79,886.8,440Z" style="fill:#ff073a;fill-rule:evenodd"/><path d="M557.2,422.69c-16.3,3.3-43.1,11.5-62.5,24.8,13.5,7.4,80.4,47.4,135,71.4.4-.2,3.4-5.2,4.9-7.2C604.4,487.79,572.6,453.59,557.2,422.69Z" style="fill:#ff073a;fill-rule:evenodd"/><path d="M600.41,260.5a3,3,0,0,1,1.75,5.73l-.53.16-.59.19c-.82.27-1.73.6-2.72,1A45.32,45.32,0,0,0,590,272c-11,7.43-15,17.62-8.23,32,4.26,9,10.21,12.83,17.8,12.79,6,0,12.76-2.45,20.11-6.62a3,3,0,0,1,3,5.22c-8.16,4.63-15.74,7.37-23,7.4-9.95.05-18-5.13-23.25-16.23-8.18-17.28-3-30.53,10.3-39.5a51.35,51.35,0,0,1,9.37-4.94A39.32,39.32,0,0,1,600.41,260.5Z" style="fill:#ff073a;fill-rule:evenodd"/><path d="M696.85,124.31a130.71,130.71,0,0,0-16,4.24l-.6.2c-37.78,12.86-60.62,35.4-71,64.79-7.58,21.53-7.81,44.39-3.67,65.71.52,2.68,1.07,5.12,1.63,7.28l.25.94.17.62c.11.39.2.73.29,1l.16.54a3,3,0,0,0,3.95,2.67l10.27-3.43.14.11c8.57,6.69,31.57,35.67,39,49.77a3,3,0,0,0,4.29,1.12l.88-.56.91-.56,1-.62.75-.45c3-1.76,6.5-3.73,10.51-5.86A372.06,372.06,0,0,1,719.2,294l1.88-.72c12-4.56,24.4-8.64,37.26-12.14l2-.54,2.12-.47,1.51-.32,1.09-.23c3.73-.79,7.68-1.57,11.68-2.3,3.18-.58,6.27-1.1,9.2-1.56l2-.3A104.91,104.91,0,0,1,805,274a3,3,0,0,0,3.09-3.37c-4.78-38.19-13.82-77.27-26.79-110.13-9.93-25.2-29.75-37.07-55.7-38.49A114.88,114.88,0,0,0,696.85,124.31ZM725.26,128c23.78,1.31,41.46,11.89,50.45,34.7l.58,1.5c11.87,30.53,20.36,66.48,25.15,101.94l.25,1.87h-.08A149.85,149.85,0,0,0,785,269.79c-3,.46-6.13,1-9.37,1.59-3.55.65-7.06,1.33-10.41,2l-2.53.53-2,.43-1.79.4-.1,0A404.79,404.79,0,0,0,717,288.41a375.15,375.15,0,0,0-40,18.15l-1.62.86c-3.43,1.84-6.49,3.57-9.15,5.14l-1,.63-.11-.19c-9.62-16.47-32.81-45.14-40.73-50l-.17-.1a3,3,0,0,0-2.34-.18l-8.65,2.88c-.58-2.19-1.17-4.71-1.71-7.52-4-20.37-3.74-42.2,3.44-62.58,9.63-27.37,30.77-48.4,66.17-60.73l1.07-.37A124.11,124.11,0,0,1,698,130.19,108.8,108.8,0,0,1,725.26,128Z" style="fill:#ff073a;fill-rule:evenodd"/><path d="M621.85,262.65a3,3,0,0,1,2.51.28c7.84,4.78,30.65,32.92,40.43,49.47l.41.69,1-.63,1.26-.74q4.17-2.43,9.51-5.26a375.15,375.15,0,0,1,40-18.15,402.58,402.58,0,0,1,39.73-13.06l2.07-.56,1.42-.32,2.47-.53,1.1-.24c3.77-.79,7.76-1.59,11.81-2.33,2.79-.51,5.5-1,8.12-1.39l1.3-.2c8.64-1.34,15.6-2,20.38-1.79a3,3,0,0,1,2.81,2.41l.14.74.28,1.55c.06.37.13.77.2,1.18l.23,1.4c.38,2.4.75,5,1.11,7.89,2.1,16.88,2.7,34.4.88,50.83-.06.59-.13,1.18-.2,1.77a3,3,0,0,1-6-.73c.07-.57.14-1.13.2-1.7,1.76-15.9,1.17-33-.87-49.43l-.21-1.64c-.32-2.43-.65-4.68-1-6.73l-.26-1.57h-.3a132.39,132.39,0,0,0-15.86,1.63l-.67.11c-3,.45-6.05,1-9.25,1.56-3.49.64-7,1.33-10.25,2l-3,.64-2.42.52-.72.17-2,.53c-12.86,3.5-25.3,7.58-37.26,12.14l-1.88.72a372.06,372.06,0,0,0-39.38,17.86l-1.58.84q-4.65,2.5-8.33,4.67l-1.35.8-1,.62-1.56,1-.23.14a3,3,0,0,1-4.29-1.12c-7.33-14-30-42.5-38.71-49.56l-.4-.32-16.52,5.54,5.55,11.23,4.26,8.58c3.2,6.41,6.38,12.75,9.47,18.87l4.28,8.45c9,17.76,15.86,30.7,19.6,37,11.95,19.95,19,25.9,46,36.54,9.08,3.52,20.65,5.5,32.52,5.5a3,3,0,0,1,0,6c-12.58,0-24.88-2.11-34.7-5.91l-2.49-1c-25.72-10.35-33.89-17.31-45.73-36.81l-.76-1.25c-3.78-6.34-10.51-19.09-19.43-36.59l-2.61-5.15c-4.07-8-8.32-16.52-12.59-25.1l-3.67-7.38-6.61-13.4a3,3,0,0,1,1.57-4.1l.17-.06Z" style="fill:#ff073a;fill-rule:evenodd"/><path d="M604.2,281.69s-19.1-22.2-32.9-48.7c-13-24.9-7.6-55.8,13.9-73.8,18-15.1,35.2-11.1,35.2-11.1s-31.1-31.6-6.6-72.6a61.27,61.27,0,0,1,39.4-28.4c40.2-8.8,61,21.8,61,21.8s23.1-89.2,122.3-64.6c10,2.5,23.2,13.1,30.2,20.7,42.3,46.1-37.3,133.1-85.7,150.5-53.1,19.2-87.3,18.2-108.2,9.2C687.9,189.29,688.4,274,604.2,281.69Z" style="fill:#ff073a;fill-rule:evenodd"/><path d="M756.09,250.35a4,4,0,0,1,5.08,2.14l.07.19,18.8,49.9a4,4,0,0,1-3.58,5.41h-.18l-19.3-.1a4,4,0,0,1-.16-8h.2l13.49.07L753.76,255.5a4,4,0,0,1,2.14-5.07Z" style="fill:#ff073a;fill-rule:evenodd"/><path d="M747.2,347.19a9.5,9.5,0,1,0-9.5-9.5A9.5,9.5,0,0,0,747.2,347.19Z" style="fill:#ff073a;fill-rule:evenodd"/><path d="M779.71,258.12c2.89-.72,4.32-5,3.2-9.46s-4.39-7.56-7.28-6.84-4.33,5-3.2,9.46S776.81,258.85,779.71,258.12Z" style="fill:#ff073a;fill-rule:evenodd"/><path d="M728.81,269.93c2.9-.72,4.33-5,3.2-9.46s-4.38-7.56-7.27-6.83-4.33,4.95-3.2,9.45S725.92,270.66,728.81,269.93Z" style="fill:#ff073a;fill-rule:evenodd"/><path d="M713.82,211.41a4,4,0,1,1,.76,8,20.5,20.5,0,0,0-13.08,6.11,22,22,0,0,0-3.28,4.3l-.23.4a13.45,13.45,0,0,0-.62,1.25l0,.08a4,4,0,0,1-7.48-2.84,21.43,21.43,0,0,1,1.44-2.9,29.43,29.43,0,0,1,4.5-5.9A28.44,28.44,0,0,1,713.82,211.41Z" style="fill:#ff073a;fill-rule:evenodd"/><path d="M763.86,197.5a22.21,22.21,0,0,1,11.08-1.19A15.76,15.76,0,0,1,786,204a4,4,0,1,1-6.84,4.16,7.77,7.77,0,0,0-5.58-4,14.68,14.68,0,0,0-7.12.85c-.64.23-1.22.46-1.74.7l-.45.21-.08,0a4,4,0,1,1-3.82-7l.34-.18A23.92,23.92,0,0,1,763.86,197.5Z" style="fill:#ff073a;fill-rule:evenodd"/><path d="M1354,563.09H965.2a11,11,0,0,0-10.7,8.5l-54.1,228.8H759.5s-7.8,40.3,37.7,40.3h496.4a11,11,0,0,0,10.7-8.5l60.4-255.6A11,11,0,0,0,1354,563.09Z" style="fill:#ff073a;fill-rule:evenodd"/><path d="M1199.7,224.29h-3.1a5,5,0,0,1-5-5v-7.9a5,5,0,0,1,5-5h3.1a5,5,0,0,1,5,5v7.9A5,5,0,0,1,1199.7,224.29Z" style="fill:#fce166;fill-rule:evenodd"/><path d="M1181.6,224.29h-79.8a5,5,0,0,1-5-5v-7.9a5,5,0,0,1,5-5h79.8a5,5,0,0,1,5,5v7.9A5,5,0,0,1,1181.6,224.29Z" style="fill:#ff073a;fill-rule:evenodd"/><path d="M1189.8,307.39h-87.9a5,5,0,0,1-5-5v-7.9a5,5,0,0,1,5-5h87.9a5,5,0,0,1,5,5v7.9A5,5,0,0,1,1189.8,307.39Z" style="fill:#ff073a;fill-rule:evenodd"/><path d="M1268.5,279.69H1126.6a5,5,0,0,1-5-5v-7.9a5,5,0,0,1,5-5h141.9a5,5,0,0,1,5,5v7.9A5,5,0,0,1,1268.5,279.69Z" style="fill:#fce166;fill-rule:evenodd"/><path d="M1359,279.69h-72a5,5,0,0,1-5-5v-7.9a5,5,0,0,1,5-5h72a5,5,0,0,1,5,5v7.9A5,5,0,0,1,1359,279.69Z" style="fill:#fce166;fill-rule:evenodd"/><path d="M1386.8,252.09h-3.1a5,5,0,0,1-5-5v-7.9a5,5,0,0,1,5-5h3.1a5,5,0,0,1,5,5v7.9A5,5,0,0,1,1386.8,252.09Z" style="fill:#ff073a;fill-rule:evenodd"/><path d="M1248.9,252H1101.8a5,5,0,0,1-5-5v-7.9a5,5,0,0,1,5-5h147.1a5,5,0,0,1,5,5V247A5,5,0,0,1,1248.9,252Z" style="fill:#ff073a;fill-rule:evenodd"/><path d="M1295.3,224.29h-79.8a5,5,0,0,1-5-5v-7.9a5,5,0,0,1,5-5h79.8a5,5,0,0,1,5,5v7.9A5,5,0,0,1,1295.3,224.29Z" style="fill:#ff073a;fill-rule:evenodd"/><path d="M1366.7,252.09H1265.9a5,5,0,0,1-5-5v-8a5,5,0,0,1,5-5h100.8a5,5,0,0,1,5,5v8A5,5,0,0,1,1366.7,252.09Z" style="fill:#fce166;fill-rule:evenodd"/><path d="M1181.6,403.69h-79.8a5,5,0,0,1-5-5v-7.9a5,5,0,0,1,5-5h79.8a5,5,0,0,1,5,5v7.9A5,5,0,0,1,1181.6,403.69Z" style="fill:#ff073a;fill-rule:evenodd"/><path d="M1189.8,486.79h-87.9a5,5,0,0,1-5-5v-7.9a5,5,0,0,1,5-5h87.9a5,5,0,0,1,5,5v7.9A5.08,5.08,0,0,1,1189.8,486.79Z" style="fill:#ff073a;fill-rule:evenodd"/><path d="M1268.5,459.09H1126.6a5,5,0,0,1-5-5v-7.9a5,5,0,0,1,5-5h141.9a5,5,0,0,1,5,5v7.9A5,5,0,0,1,1268.5,459.09Z" style="fill:#fce166;fill-rule:evenodd"/><path d="M1359,459.09h-72a5,5,0,0,1-5-5v-7.9a5,5,0,0,1,5-5h72a5,5,0,0,1,5,5v7.9A5,5,0,0,1,1359,459.09Z" style="fill:#fce166;fill-rule:evenodd"/><path d="M1386.8,431.49h-3.1a5,5,0,0,1-5-5v-7.9a5,5,0,0,1,5-5h3.1a5,5,0,0,1,5,5v7.9A5,5,0,0,1,1386.8,431.49Z" style="fill:#ff073a;fill-rule:evenodd"/><path d="M1409.6,403.69h-3.1a5,5,0,0,1-5-5v-7.9a5,5,0,0,1,5-5h3.1a5,5,0,0,1,5,5v7.9A5,5,0,0,1,1409.6,403.69Z" style="fill:#ff073a;fill-rule:evenodd"/><path d="M1248.9,431.39H1101.8a5,5,0,0,1-5-5v-7.9a5,5,0,0,1,5-5h147.1a5,5,0,0,1,5,5v7.9A5,5,0,0,1,1248.9,431.39Z" style="fill:#ff073a;fill-rule:evenodd"/><path d="M1295.3,403.69h-98.6a5,5,0,0,1-5-5v-7.9a5,5,0,0,1,5-5h98.6a5,5,0,0,1,5,5v7.9A5,5,0,0,1,1295.3,403.69Z" style="fill:#fce166;fill-rule:evenodd"/><path d="M1392,403.69h-79.8a5,5,0,0,1-5-5v-7.9a5,5,0,0,1,5-5H1392a5,5,0,0,1,5,5v7.9A5,5,0,0,1,1392,403.69Z" style="fill:#fce166;fill-rule:evenodd"/><path d="M1199.7,376.89h-3.1a5,5,0,0,1-5-5V364a5,5,0,0,1,5-5h3.1a5,5,0,0,1,5,5v7.9A5,5,0,0,1,1199.7,376.89Z" style="fill:#fce166;fill-rule:evenodd"/><path d="M1181.6,376.89h-79.8a5,5,0,0,1-5-5V364a5,5,0,0,1,5-5h79.8a5,5,0,0,1,5,5v7.9A5,5,0,0,1,1181.6,376.89Z" style="fill:#ff073a;fill-rule:evenodd"/><path d="M1295.3,376.89h-79.8a5,5,0,0,1-5-5V364a5,5,0,0,1,5-5h79.8a5,5,0,0,1,5,5v7.9A5.08,5.08,0,0,1,1295.3,376.89Z" style="fill:#ff073a;fill-rule:evenodd"/><path d="M1366.7,431.49H1265.9a5,5,0,0,1-5-5v-8a5,5,0,0,1,5-5h100.8a5,5,0,0,1,5,5v8A5,5,0,0,1,1366.7,431.49Z" style="fill:#fce166;fill-rule:evenodd"/><path d="M1490.87,731.2a29.07,29.07,0,1,1,4.18,58,33.27,33.27,0,0,1-6.6-.23,3,3,0,0,1,.89-5.94,26.7,26.7,0,0,0,5.35.18,23.07,23.07,0,0,0-3.34-46,26.15,26.15,0,0,0-6.1,1.26,3,3,0,1,1-1.9-5.69A32.11,32.11,0,0,1,1490.87,731.2Z" style="fill:#ff073a;fill-rule:evenodd"/><path d="M1382.3,691.17a3,3,0,0,1,4.1.28l.12.14,37.3,45.5a3,3,0,0,1-4.52,3.95l-.12-.15-37.3-45.5A3,3,0,0,1,1382.3,691.17Z" style="fill:#ff073a;fill-rule:evenodd"/><path d="M1378.7,724.89v85.8a30,30,0,0,0,30,30h50.6a30,30,0,0,0,30-30v-85.8Zm44.8,62.8a2,2,0,0,1,1,1.8,1.82,1.82,0,0,1-.6,1.4,2,2,0,0,1-1.4.6,1.69,1.69,0,0,1-1-.3l-20-12a2,2,0,0,1,0-3.6l20-12a1.69,1.69,0,0,1,1-.3,1.82,1.82,0,0,1,1.4.6,2,2,0,0,1,.6,1.4,2.12,2.12,0,0,1-1,1.8l-17.2,10.3Zm25-29.6-16.1,40.2a2.09,2.09,0,0,1-.4.6,2,2,0,0,1-1.4.6,1.82,1.82,0,0,1-1.4-.6,2,2,0,0,1-.6-1.4,2.92,2.92,0,0,1,.2-.9l16.1-40.2a2.09,2.09,0,0,1,.4-.6,2,2,0,0,1,1.4-.6,1.82,1.82,0,0,1,1.4.6,2,2,0,0,1,.6,1.4A2,2,0,0,1,1448.5,758.09Zm27.2,21.1-20,12a1.69,1.69,0,0,1-1,.3,1.82,1.82,0,0,1-1.4-.6,2,2,0,0,1-.6-1.4,2.12,2.12,0,0,1,1-1.8l17.2-10.3-17.2-10.3a2,2,0,0,1-1-1.8,1.82,1.82,0,0,1,.6-1.4,2,2,0,0,1,1.4-.6,1.69,1.69,0,0,1,1,.3l20,12a2.24,2.24,0,0,1,1.1,1.8A1.92,1.92,0,0,1,1475.7,779.19Z" style="fill:#ff073a;fill-rule:evenodd"/><path d="M241.21,731.2a26.13,26.13,0,0,1,5.29.12,3,3,0,0,1-.8,5.95,21.52,21.52,0,0,0-4.09-.09,23.07,23.07,0,0,0,3.36,46,3,3,0,0,1,.46,6,29.07,29.07,0,1,1-4.22-58Z" style="fill:#ff073a;fill-rule:evenodd"/><path d="M241.8,724.89v85.8a30,30,0,0,0,30,30h50.6a30,30,0,0,0,30-30v-85.8Zm44.7,62.8a2,2,0,0,1,1,1.8,1.82,1.82,0,0,1-.6,1.4,2,2,0,0,1-1.4.6,1.69,1.69,0,0,1-1-.3l-20-12a2,2,0,0,1,0-3.6l20-12a1.69,1.69,0,0,1,1-.3,1.82,1.82,0,0,1,1.4.6,2,2,0,0,1,.6,1.4,2.12,2.12,0,0,1-1,1.8l-17.2,10.3Zm42.2-8.5-20,12a1.69,1.69,0,0,1-1,.3,1.82,1.82,0,0,1-1.4-.6,2,2,0,0,1-.6-1.4,2.12,2.12,0,0,1,1-1.8l17.2-10.3-17.2-10.3a2,2,0,0,1-1-1.8,1.82,1.82,0,0,1,.6-1.4,2,2,0,0,1,1.4-.6,1.69,1.69,0,0,1,1,.3l20,12a2.24,2.24,0,0,1,1.1,1.8A2.11,2.11,0,0,1,328.7,779.19Z" style="fill:#ff073a;fill-rule:evenodd"/><path d="M412.15,662.87a3,3,0,0,1,4,1l.1.16,13.7,24.8a3,3,0,0,1-5.16,3.06l-.1-.16L411,666.94A3,3,0,0,1,412.15,662.87Z" style="fill:#ff073a;fill-rule:evenodd"/><path d="M472.7,690a3,3,0,0,1,.18,6h-76a3,3,0,0,1-.18-6h76Z" style="fill:#ff073a;fill-rule:evenodd"/><path d="M462.2,773.79a5.73,5.73,0,0,0-4.2-1.7,6.07,6.07,0,0,0-4.2,1.7,5.73,5.73,0,0,0-1.7,4.2,6.07,6.07,0,0,0,1.7,4.2,5.73,5.73,0,0,0,4.2,1.7,6.07,6.07,0,0,0,4.2-1.7,5.73,5.73,0,0,0,1.7-4.2A5.37,5.37,0,0,0,462.2,773.79Z" style="fill:#ff073a;fill-rule:evenodd"/><path d="M458.1,765a6.07,6.07,0,0,0,4.2-1.7,5.73,5.73,0,0,0,1.7-4.2,6.07,6.07,0,0,0-1.7-4.2,5.73,5.73,0,0,0-4.2-1.7,6.07,6.07,0,0,0-4.2,1.7,5.73,5.73,0,0,0-1.7,4.2,6.07,6.07,0,0,0,1.7,4.2A5.89,5.89,0,0,0,458.1,765Z" style="fill:#ff073a;fill-rule:evenodd"/><path d="M462.2,800.89a5.73,5.73,0,0,0,1.7-4.2,6.07,6.07,0,0,0-1.7-4.2,5.73,5.73,0,0,0-4.2-1.7,6.07,6.07,0,0,0-4.2,1.7,5.73,5.73,0,0,0-1.7,4.2,6.07,6.07,0,0,0,1.7,4.2,6,6,0,0,0,8.4,0Z" style="fill:#ff073a;fill-rule:evenodd"/><path d="M480.2,711.09l-13.3-17.3H402.8l-13.3,17.3a9.14,9.14,0,0,0-2,5.6V822a9.91,9.91,0,0,0,4.9,8.3c4.1,2.6,9.4,6.5,9.7,10.3h65.3c.4-3.8,5.6-7.8,9.7-10.3A9.79,9.79,0,0,0,482,822V716.69A8.2,8.2,0,0,0,480.2,711.09Zm-27.8,20.2,7-11.7a1.25,1.25,0,0,1,1.1-.6,1.38,1.38,0,0,1,1.1.6l7,11.7a1.27,1.27,0,0,1,.1.6,1,1,0,0,1-1.1,1.1,1.1,1.1,0,0,1-1-.6l-6-10-6,10a1.22,1.22,0,0,1-1,.6,1,1,0,0,1-1.1-1.1C452.2,731.59,452.3,731.39,452.4,731.29Zm.4,4.4a1.45,1.45,0,0,1,.7-.2,1.13,1.13,0,0,1,.8,1.9c-.2.2-.4.3-.4.4a5.73,5.73,0,0,0-1.7,4.2,5.28,5.28,0,0,0,1.5,3.9,1.78,1.78,0,0,0,1,.4.88.88,0,0,0,.9-.7l2.4-7.2a6.49,6.49,0,0,1,1-1.9,3.32,3.32,0,0,1,2.5-1,3.41,3.41,0,0,1,2.5,1.1,7.45,7.45,0,0,1,2.2,5.5,8.17,8.17,0,0,1-2.9,6.3.84.84,0,0,1-.7.2,1.13,1.13,0,0,1-.8-1.9c.2-.2.4-.3.4-.4a5.73,5.73,0,0,0,1.7-4.2,5.28,5.28,0,0,0-1.5-3.9,1.78,1.78,0,0,0-1-.4.88.88,0,0,0-.9.7l-2.4,7.2a6.49,6.49,0,0,1-1,1.9,3.32,3.32,0,0,1-2.5,1,3.41,3.41,0,0,1-2.5-1.1,7.45,7.45,0,0,1-2.2-5.5A7.86,7.86,0,0,1,452.8,735.69Zm-.5,17.6a8.21,8.21,0,1,1-2.4,5.8A7.85,7.85,0,0,1,452.3,753.29Zm-2.1,51.3a1.1,1.1,0,0,1,.8-1.9h1.3a8.16,8.16,0,0,1-2.5-5.9A8.2,8.2,0,1,1,458,805h-7A2,2,0,0,1,450.2,804.59Zm18.3,4.4-7,11.7a1.25,1.25,0,0,1-1.1.6,1.38,1.38,0,0,1-1.1-.6l-7-11.7a1.27,1.27,0,0,1-.1-.6,1,1,0,0,1,1.1-1.1,1.1,1.1,0,0,1,1,.6l6,10,6-10a1.22,1.22,0,0,1,1-.6,1,1,0,0,1,1.1,1.1C468.6,808.69,468.6,808.79,468.5,809Zm4.5-23.2a1.14,1.14,0,0,1-.8.3H458.1a8.19,8.19,0,1,1,5.8-2.4l-.1.1h8.4a1,1,0,0,1,1.1,1.1A1.4,1.4,0,0,1,473,785.79Z" style="fill:#ff073a;fill-rule:evenodd"/><path d="M720.26,351.45c4.35-5.94,12.15-4.36,20.1,3.86,7.74,8,12.71,18.64,15.46,30.19a3,3,0,0,1-5.84,1.39c-2.52-10.6-7.06-20.29-13.94-27.41-5.72-5.92-9.35-6.65-10.95-4.48-1.94,2.65-1.68,8.68,1.2,14.46l.17.35c4.18,8.08,5.35,24,4.74,43.67a3,3,0,0,1-6-.18l.06-2.1c.42-17.37-.72-31.71-4-38.37l-.13-.26C717.14,364.86,716.72,356.28,720.26,351.45Z" style="fill:#ff073a;fill-rule:evenodd"/><path d="M854.1,337.49a29.1,29.1,0,1,0,29.1,29.1A29.1,29.1,0,0,0,854.1,337.49Zm0,6a23.1,23.1,0,1,1-23.1,23.1A23.1,23.1,0,0,1,854.1,343.49Z" style="fill:#ff073a;fill-rule:evenodd"/><path d="M698.34,462.06a3,3,0,0,1,4,.46l.54.68,1.29,1.59c1.43,1.73,3.08,3.66,4.94,5.73a203.47,203.47,0,0,0,17.55,17.42c15.2,13.3,30.34,22.11,44.4,24.39a3,3,0,0,1,2.41,2.17l.07.26c.1.42.22,1.06.33,1.89.58,4.43.49,10.53-.72,18.41l-.11.7c-.62,3.92.33,6.66,3.48,11.5l1.58,2.38a30.31,30.31,0,0,1,4.27,8.49,22.46,22.46,0,0,1-.31,13.3l0,.09c-.36,2-3.34,31-4.76,43.43l-.13,1.12c-3.78,32.52-8.32,62.86-14.17,91.6-7.72,37.89-17.08,69.45-28.4,93-13.64,28.41-29.86,44.56-49.18,46a3,3,0,1,1-.44-6c16.48-1.23,31.11-15.65,43.83-41.82l.39-.79c11.06-23,20.29-54.17,27.92-91.62,5.66-27.78,10.08-57.1,13.78-88.47l.55-4.78c1.39-12.31,4.39-41.43,4.87-43.45v0c2-6.65,1-10.36-3.49-17.18L771.79,551c-4.11-6.23-5.59-10.27-4.65-16.14a65,65,0,0,0,.88-16.68l0-.28-.55-.11c-14.35-3-29.2-11.86-44-24.69l-.69-.6a209.75,209.75,0,0,1-18.07-17.93c-1.57-1.76-3-3.41-4.27-4.93l-.78-.94-1.36,1.09c-2.62,2.11-6,4.89-10.1,8.42a15.8,15.8,0,0,1-8.78,3.82l-.49.05a32.46,32.46,0,0,1-7.22-.32l-.42-.05c-8.18-1-11.55-.31-16,4.64l-.22.26c-2.84,3.23-17.32,26.43-39.42,62.85l-7,11.55-2.86,4.74c-6.71,11.11-13.69,22.7-20.71,34.42l-17.19,28.72-4.4,7.38a3,3,0,0,1-5.25-2.91l5-8.48,9.1-15.21c9-15.13,18.14-30.25,26.82-44.63l10.7-17.68c23-37.84,37.43-61,40.64-64.7a20,20,0,0,1,11.16-6.93,25.83,25.83,0,0,1,8.85-.13l2.21.25c6.15.67,8.56.31,11.49-2.2l2.51-2.13c3-2.59,5.61-4.71,7.73-6.41l1.56-1.25,1.05-.82,1-.79Z" style="fill:#ff073a;fill-rule:evenodd"/><path d="M773.2,534.89c2.5-14.9,3.5-21.3,3.5-21.3-38.2-5.9-77.5-53.9-77.5-53.9s-3.9,2.9-14.9,12.4c-4.4,3.8-9,3.8-13.8,3.3-3.4,41.7,71.5,78.8,106.9,80.6C775.2,546,771.3,546.19,773.2,534.89Z" style="fill:#ff073a;fill-rule:evenodd"/><path d="M555.81,586c11.21-1.42,21.07,1.18,28.94,8.54a3,3,0,1,1-4.1,4.38c-6.46-6-14.55-8.17-24.08-7-8.66,1.1-18.06,4.88-27.6,10.52A123.62,123.62,0,0,0,517.65,610l-.88.66c-.57.43-1.1.85-1.6,1.24l-.72.58-.68.56-.41.34a3,3,0,1,1-3.92-4.54l.41-.35.64-.52.95-.77c.79-.62,1.66-1.3,2.61-2a133.67,133.67,0,0,1,11.87-7.91C536.1,591.25,546.22,587.18,555.81,586Z" style="fill:#ff073a;fill-rule:evenodd"/><path d="M806.24,352.5l-.26,0c-4,.58-15.1,6.88-30.7,16.94l-3.19,2.07c-14.18,9.24-28.13,19.06-32.76,23.09l-.25.23c-4.15,3.9-13.51,19.28-27.21,43.85l-.86,1.54c-.8,1.45-1.62,2.91-2.44,4.4l-2.43,4.4c-4.47,8.14-9.07,16.64-13.65,25.2l-4,7.45c-1.46,2.74-2.83,5.32-4.09,7.72l-2.68,5.08a3,3,0,0,0,1.15,4l75.6,43.89.17.09a3,3,0,0,0,4.1-1.51l37-87.58h.51c15.65-.36,26.11-4.5,30.84-11.18,4.54-6.43,2.36-14.66-4.4-15.19h-.18c-.88-.06-2-.06-3.5,0l-.92,0,.12,0c9.08-3,14.55-7.61,16.28-13.2,2-6.32-1.76-12.93-7.35-13.28h-.13a38.51,38.51,0,0,0-7.23.79l-.54.09.2-.11c5-2.73,8.26-6.84,9.32-11.48,1.35-5.88-1.32-11.46-6.75-12.89l-.16,0c-3.13-.68-11.34.93-22.63,4.1l-1.21.34.55-.32c3.52-2.05,6.53-3.89,8.94-5.47,6.58-4.33,8.84-10.21,6.53-15.62A12.3,12.3,0,0,0,806.24,352.5Zm6.32,9.73c1.09,2.55,0,5.43-4.31,8.26l-.79.51c-2.85,1.84-6.53,4-10.88,6.51l-2.18,1.23-1.59.9c-4.21,2.34-8.7,4.77-13.21,7.16l-3,1.58-4.73,2.47-.73.37a3,3,0,0,0,2.35,5.51l2.22-.77c23.9-8.18,45.46-14.14,48.84-13.27,2,.53,3.1,2.8,2.42,5.76-.85,3.71-4.15,7.12-9.58,8.95l-.49.17-40.7,14.5a3,3,0,0,0,1.56,5.77l.32-.08,5.66-1.39,1.41-.35c5.47-1.33,11.06-2.67,16.45-3.91l2.37-.55,3.36-.76c12.61-2.83,21.41-4.48,23.45-4.32,1.47.09,2.92,2.68,2,5.52-1.42,4.59-7.71,8.81-19.61,11.14l-4,.76c-21.07,4.08-28.59,6.76-29.75,9.37a3,3,0,0,0,3,4.21l5.41-.73c4-.53,8.2-1.06,12.32-1.55l2.11-.26,4.73-.54c9.74-1.08,16.68-1.62,19.24-1.42,1.44.12,2.13,2.7,0,5.74-3.66,5.18-13.16,8.71-28.43,8.67h-.2a3,3,0,0,0-2.57,1.82l-36.48,86.27-70.17-40.75,4.93-9.31,2-3.69,2.5-4.66c5.4-10.09,10.83-20.1,16-29.52l2.43-4.39,2.44-4.37c12.53-22.34,21.5-37,24.58-39.65,10.92-9.51,58.21-40.22,63.49-40.67A6.32,6.32,0,0,1,812.56,362.23Z" style="fill:#ff073a;fill-rule:evenodd"/><path d="M639.17,731.2a29.07,29.07,0,1,1-6.52,56.74,3,3,0,1,1,1.9-5.69,23.07,23.07,0,1,0,5.06-45.07,27.31,27.31,0,0,0-3.78.54,3,3,0,1,1-1.26-5.86A33.53,33.53,0,0,1,639.17,731.2Z" style="fill:#ff073a;fill-rule:evenodd"/><path d="M527.1,724.89v85.8a30,30,0,0,0,30,30h50.6a30,30,0,0,0,30-30v-85.8Zm44.7,62.8a2,2,0,0,1,1,1.8,1.82,1.82,0,0,1-.6,1.4,2,2,0,0,1-1.4.6,1.69,1.69,0,0,1-1-.3l-20-12a2,2,0,0,1,0-3.6l20-12a1.69,1.69,0,0,1,1-.3,1.82,1.82,0,0,1,1.4.6,2,2,0,0,1,.6,1.4,2.12,2.12,0,0,1-1,1.8l-17.2,10.3Zm25-29.6-16.1,40.2a2.09,2.09,0,0,1-.4.6,2,2,0,0,1-1.4.6,1.82,1.82,0,0,1-1.4-.6,2,2,0,0,1-.6-1.4,2.92,2.92,0,0,1,.2-.9l16.1-40.2a2.09,2.09,0,0,1,.4-.6,2,2,0,0,1,1.4-.6,1.82,1.82,0,0,1,1.4.6,2,2,0,0,1,.6,1.4A2,2,0,0,1,596.8,758.09Zm27.2,21.1-20,12a1.69,1.69,0,0,1-1,.3,1.82,1.82,0,0,1-1.4-.6,2,2,0,0,1-.6-1.4,2.12,2.12,0,0,1,1-1.8l17.2-10.3L602,767.09a2,2,0,0,1-1-1.8,1.82,1.82,0,0,1,.6-1.4,2,2,0,0,1,1.4-.6,1.69,1.69,0,0,1,1,.3l20,12a2.24,2.24,0,0,1,1.1,1.8A1.77,1.77,0,0,1,624,779.19Z" style="fill:#ff073a;fill-rule:evenodd"/><path d="M1639.4,840.19a3,3,0,0,1,.18,6H3a3,3,0,0,1-.18-6H1639.4Z" style="fill:#ff073a;fill-rule:evenodd"/><path d="M853.7,417.19l-5.5-85.6-110.4,7.1,3.8,57.9c9.8-8.4,58-40.6,65-41.2s15.4,9.6,3.4,17.5-37.4,20.9-37.4,20.9c21.1-7.4,47.8-15.4,52.8-14.1,7.6,2,7.1,16-7.4,20.6l-40.7,14.5s47.4-11.9,53.8-11.4,12,17.1-17.8,22.7-31,8.3-31,8.3,36.7-5.2,44.3-4.5,7.8,20.5-28.7,20.4l-.2.5,28.1-1.8A29.9,29.9,0,0,0,853.7,417.19Z" style="fill:#ff073a;fill-rule:evenodd"/></g></g></svg>
