<svg id="Layer_1" data-name="Layer 1" xmlns="http://www.w3.org/2000/svg" viewBox="0 0 178.72 368.03"><defs><style>.cls-1{fill:#f05a2a;}.cls-2{fill:#f8ec3a;}.cls-3{fill:#fff;}.cls-4{fill:#e8af2e;}.cls-5,.cls-8{fill:none;stroke:#403f41;stroke-linecap:round;stroke-miterlimit:10;}.cls-5{stroke-width:4.9px;}.cls-6{fill:#a6a8ab;}.cls-7{fill:#221f1f;}.cls-8{stroke-width:4.08px;}.cls-9{fill:#fde039;}.cls-10{fill:#403f41;}</style></defs><path class="cls-1" d="M967.87,724.35c9.22-23.13,30.06-52.32,29.72-65.44s-15.5-31.37-32.17-30.95-30.89,19.19-30.55,32.54S967.87,724.35,967.87,724.35Z" transform="translate(-869.43 -356.32)"/><path class="cls-2" d="M967.45,707.7c7.53-18.9,24.56-42.76,24.29-53.48s-12.67-25.64-26.29-25.3-25.25,15.69-25,26.6S967.45,707.7,967.45,707.7Z" transform="translate(-869.43 -356.32)"/><path class="cls-3" d="M967,689.51c5.8-14.56,18.92-33,18.72-41.21s-9.77-19.75-20.26-19.49S946,640.9,946.2,649.3,967,689.51,967,689.51Z" transform="translate(-869.43 -356.32)"/><path class="cls-1" d="M940.35,697.79c9.35-13.66,27.12-29.58,28.82-38.14S963.68,637,952.8,634.88s-22.84,8-24.57,16.67S940.35,697.79,940.35,697.79Z" transform="translate(-869.43 -356.32)"/><path class="cls-2" d="M942.5,686.92c7.64-11.17,22.17-24.17,23.56-31.16s-4.49-18.49-13.38-20.25S934,642,932.6,649.13,942.5,686.92,942.5,686.92Z" transform="translate(-869.43 -356.32)"/><path class="cls-3" d="M944.85,675.05c5.89-8.6,17.08-18.62,18.15-24s-3.46-14.24-10.31-15.6-14.38,5-15.47,10.5S944.85,675.05,944.85,675.05Z" transform="translate(-869.43 -356.32)"/><path class="cls-1" d="M974,669.61c0-10.52,3.49-25.25,1.28-30.33s-11-9.83-17.5-7-9.06,12.41-6.82,17.58S974,669.61,974,669.61Z" transform="translate(-869.43 -356.32)"/><path class="cls-2" d="M971.2,663.16c0-8.59,2.85-20.64,1-24.79s-9-8-14.3-5.74-7.4,10.14-5.57,14.37S971.2,663.16,971.2,663.16Z" transform="translate(-869.43 -356.32)"/><path class="cls-3" d="M968.14,656.11c0-6.62,2.2-15.9.8-19.1s-7-6.19-11-4.43-5.7,7.82-4.29,11.08S968.14,656.11,968.14,656.11Z" transform="translate(-869.43 -356.32)"/><path class="cls-4" d="M1048.12,445.67c-46.5,61.6-63.63,8.38-89.34,8.56-13.46.1-23.25,55.48-89.35-8.56a89.35,89.35,0,1,1,178.69,0Z" transform="translate(-869.43 -356.32)"/><path class="cls-4" d="M869.43,445.67c9.8,55.74,36.72,62.56,51.41,120.82,31.88,21.23,29.43,16.33,80.78,4.19,7.34-53.63,46.5-86,46.5-125C1050.57,387.32,876.78,398.75,869.43,445.67Z" transform="translate(-869.43 -356.32)"/><path class="cls-5" d="M918.4,462.65s16.93,38.87,22.05,53.3,5.26,48.86,5.26,48.86" transform="translate(-869.43 -356.32)"/><path class="cls-5" d="M1005.33,462.65S988.4,501.52,983.28,516,978,564.81,978,564.81" transform="translate(-869.43 -356.32)"/><path class="cls-6" d="M930.52,593.46V621c0,8.48,5.5,15.35,12.3,15.35h36.86c6.77,0,12.27-6.87,12.27-15.35V593.46Z" transform="translate(-869.43 -356.32)"/><path class="cls-7" d="M915.22,559.64v44.71a15.35,15.35,0,0,0,15.34,15.35h61.35a15.36,15.36,0,0,0,15.35-15.35V559.64Z" transform="translate(-869.43 -356.32)"/><path class="cls-8" d="M944,476.85c0,6.46-4,11.7-8.92,11.7s-8.9-5.24-8.9-11.7,4-11.69,8.9-11.69S944,470.4,944,476.85Z" transform="translate(-869.43 -356.32)"/><path class="cls-8" d="M961.86,476.85c0,6.46-4,11.7-8.91,11.7s-8.91-5.24-8.91-11.7,4-11.69,8.91-11.69S961.86,470.4,961.86,476.85Z" transform="translate(-869.43 -356.32)"/><path class="cls-8" d="M979.7,476.85c0,6.46-4,11.7-8.92,11.7s-8.92-5.24-8.92-11.7,4-11.69,8.92-11.69S979.7,470.4,979.7,476.85Z" transform="translate(-869.43 -356.32)"/><path class="cls-8" d="M997.52,476.85c0,6.46-4,11.7-8.91,11.7s-8.91-5.24-8.91-11.7,4-11.69,8.91-11.69S997.52,470.4,997.52,476.85Z" transform="translate(-869.43 -356.32)"/><path class="cls-9" d="M930.52,372.73c22.05-16.27,61.39-2.43,76,8.15,20.25,14.72,35.2,47.21,32.87,68.21s-11.22,32.09-19.48,51.64c-2.94,6.95,10-21.19-5.74-59.12-11.78-28.31-45.84-35.53-68.42-38.14C929.91,401.64,908.6,388.92,930.52,372.73Z" transform="translate(-869.43 -356.32)"/><path class="cls-10" d="M1010.37,573.11a2.16,2.16,0,0,1-2.1,2.21h-94.5a2.16,2.16,0,0,1-2.1-2.21v-3.83a2.16,2.16,0,0,1,2.1-2.21h94.5a2.16,2.16,0,0,1,2.1,2.21Z" transform="translate(-869.43 -356.32)"/><path class="cls-10" d="M1010.37,586.31a2.16,2.16,0,0,1-2.1,2.21h-94.5a2.16,2.16,0,0,1-2.1-2.21v-3.84a2.16,2.16,0,0,1,2.1-2.21h94.5a2.14,2.14,0,0,1,2.1,2.2Z" transform="translate(-869.43 -356.32)"/><path class="cls-10" d="M1010.59,599.5a2.16,2.16,0,0,1-2.1,2.21H914a2.16,2.16,0,0,1-2.11-2.21v-3.83a2.16,2.16,0,0,1,2.11-2.21h94.5a2.16,2.16,0,0,1,2.1,2.21Z" transform="translate(-869.43 -356.32)"/></svg>