<svg xmlns="http://www.w3.org/2000/svg" viewBox="0 0 467.49 196.89"><g id="Layer_2" data-name="Layer 2"><g id="Layer_1-2" data-name="Layer 1"><g id="BlogueiLogo"><path d="M297,78.09c0-5.84,2.18-11.21-1-18s-5.19-14-11.28-19.5q-14.07-12.78-30.56-9.48T221.86,51.86q-17,18.66-21,38.88a68.24,68.24,0,0,0,3,38.53,83.38,83.38,0,0,0,22.25,32.16c11.49,10.43,24.61,17.27,38.08,13.57,17.83-4.91,16.85-9.81,30.88-25.25,6.43-7.09,10.49-13.86,12.72-23.24s1.76-17.86,5.17-28.36c.52-1.68,3.07-5,4.06-6.06,1.65-1.81,5.83-.86,8.12-.94s.28.66,2,2.23a8.83,8.83,0,0,1,2.59,4.34,11.41,11.41,0,0,1-.22,6c-2.51,9.67-1.77,19.09-6.7,29.88C318,144.09,316,153.26,308.24,161.8c-12.29,13.53-16.21,20.29-28,28.52-11.6,8.09-25.56,7.21-37.56,5.18a62.4,62.4,0,0,1-32.06-15.83,95.11,95.11,0,0,1-26.37-40q-8.08-23.37-2.14-49.94T210.45,38.5q13.74-15.12,29.07-22.34T270.23,11C280.48,12.34,291,22.09,299,33.09c7.89,10.85,14,24,15,33,1.13,10.14-6,15-14,22" style="fill:#fce166"/><path d="M76,90a9.77,9.77,0,0,1,1,4.6A12,12,0,0,1,76,100a5.16,5.16,0,0,1-3.07,2.58,63.19,63.19,0,0,1-18.39,3.34Q51.7,117.48,44,124.58t-17.07,7.1q-14.07,0-20.48-10.73T0,89.88A189.61,189.61,0,0,1,4.46,50.79q4.45-21.1,13-35.95T37.9,0A12.06,12.06,0,0,1,48.21,5.5q3.9,5.5,3.91,14.29A63.07,63.07,0,0,1,47.8,42.5Q43.48,53.8,33.44,66.19a21,21,0,0,1,15.19,7.73,31.74,31.74,0,0,1,7,17.35,84.42,84.42,0,0,0,15.61-2.78,6,6,0,0,1,2-.28A3,3,0,0,1,76,90ZM35.12,113.29q3.35-3.62,4.46-10.45A19.22,19.22,0,0,1,33,95.17a22.55,22.55,0,0,1-2.3-10,34.1,34.1,0,0,1,.55-5.29H30.8q-5.72,0-9.55,5.64t-3.83,15.12c0,5.29,1,9.34,3,12.12s4.35,4.18,7,4.18A10.17,10.17,0,0,0,35.12,113.29Zm-6.48-91.2a132.68,132.68,0,0,0-6.07,22.5,283.29,283.29,0,0,0-4.18,31.08Q27.6,58.81,33.1,45.92T38.6,23a17.47,17.47,0,0,0-1.05-6.83c-.69-1.57-1.65-2.37-2.85-2.37Q31.91,13.79,28.64,22.09Z" style="fill:#ff073a"/><path d="M120.61,101.58a8.73,8.73,0,0,1,1,4.6q0,5.58-2.65,8.64A59.88,59.88,0,0,1,106,127a27.89,27.89,0,0,1-16,4.73q-12.27,0-18.19-11.14T65.91,91.69q0-17,4.39-38.74t13-37.34Q91.82,0,103.67,0q6.69,0,10.53,6.2T118,24q0,16.58-9.2,38.46a213.52,213.52,0,0,1-24.94,43.34c.65,3.81,1.72,6.52,3.2,8.15A7.59,7.59,0,0,0,93,116.36a16.18,16.18,0,0,0,10-3.28q4.32-3.27,11-11.22a4.89,4.89,0,0,1,3.76-2A3.23,3.23,0,0,1,120.61,101.58ZM93.36,25.36a190.13,190.13,0,0,0-7.1,28.71A207.53,207.53,0,0,0,82.91,87,179.36,179.36,0,0,0,98.66,54.28q5.85-16.38,5.85-29.9c0-7-1.3-10.59-3.9-10.59Q97.4,13.79,93.36,25.36Z" style="fill:#ff073a"/><path d="M184.22,90a9.65,9.65,0,0,1,1,4.6c0,4.46-1.35,7.1-4,7.94a63.12,63.12,0,0,1-18.39,3.34q-2.65,11.71-10.45,18.75a25.74,25.74,0,0,1-17.7,7,24.64,24.64,0,0,1-14.28-4,25.6,25.6,0,0,1-9-10.73,34.24,34.24,0,0,1-3.07-14.49,42.61,42.61,0,0,1,4-18.88,31.75,31.75,0,0,1,11.15-13,28.11,28.11,0,0,1,15.75-4.67q10.59,0,17.07,7.32a31.28,31.28,0,0,1,7.59,18,84.42,84.42,0,0,0,15.61-2.78,7.94,7.94,0,0,1,2-.28A3,3,0,0,1,184.22,90Zm-40.76,23.27q3.27-3.62,4.39-10.45a19.22,19.22,0,0,1-6.62-7.67,22.55,22.55,0,0,1-2.3-10,24.13,24.13,0,0,1,.42-4.46h-.7q-5.58,0-9.27,5.37t-3.69,15.12q0,7.67,3,11.7c2,2.7,4.34,4,7,4A10.1,10.1,0,0,0,143.46,113.29Z" style="fill:#ff073a"/><path d="M300.07,79.28a7.69,7.69,0,0,1,1,4,9.86,9.86,0,0,1-.89,4.6,8.41,8.41,0,0,1-2.81,2.94q-11,7.41-16.1,11l-8.18,5.5q-4.85,26.43-12.7,41.58t-20,15.13a14.48,14.48,0,0,1-10.6-4,14.16,14.16,0,0,1-4.09-10.54q0-9.08,7.16-19.48t26.82-25.61l.77-5a14.74,14.74,0,0,1-5.68,5.3,14.94,14.94,0,0,1-7,1.85,15.53,15.53,0,0,1-12.64-5.75q-4.73-5.74-4.73-15.07a41.54,41.54,0,0,1,4.73-19.35A40.26,40.26,0,0,1,247.7,51.69a28.34,28.34,0,0,1,16.67-5.56c1.87,0,3.13.36,3.77,1.09a9.06,9.06,0,0,1,1.59,3.89,27.55,27.55,0,0,1,5.62-.51,8.08,8.08,0,0,1,4.54,1c.89.64,1.34,1.9,1.34,3.77a17.31,17.31,0,0,1-.13,2.43q-.51,4-3.19,20.05-.51,3.06-1.09,6.71c-.38,2.42-.79,5-1.21,7.72q9.84-7.67,18.9-13.54a5.83,5.83,0,0,1,2.94-1A2.93,2.93,0,0,1,300.07,79.28ZM249,144q4-7.66,7.72-24.4-9.82,8.43-14.17,15.2t-4.35,11.88a7,7,0,0,0,.83,3.58,3,3,0,0,0,2.75,1.4Q245,151.64,249,144Zm9-53.91q2.68-3.57,3.83-10.22L265.9,58a15.15,15.15,0,0,0-9.71,4A27.51,27.51,0,0,0,249,72.32a34.58,34.58,0,0,0-2.68,13.54q0,4,1.59,5.87a5.44,5.44,0,0,0,4.41,1.92Q255.3,93.65,258,90.07Z" style="fill:#fce166"/><path d="M319.85,115.9q-4-5.78-4-14.42a121.58,121.58,0,0,1,1.39-19.16,120.18,120.18,0,0,1,4.6-18.47,11.71,11.71,0,0,1,3.9-6c1.68-1.2,4.32-1.81,8-1.81,2,0,3.46.33,4.25,1A3.58,3.58,0,0,1,339.15,60a57.59,57.59,0,0,1-1.53,7.53q-1.39,5.16-2.23,9.33-2.79,14.64-2.79,19.51a8.61,8.61,0,0,0,.7,4.11,2.38,2.38,0,0,0,2.23,1.19c1.39,0,3.13-1.4,5.22-4.18a61.75,61.75,0,0,0,6.69-12.68,169.55,169.55,0,0,0,6.9-20.91,11,11,0,0,1,3.41-6c1.54-1.2,3.84-1.81,6.9-1.81a9.18,9.18,0,0,1,4.46.77,3.06,3.06,0,0,1,1.26,2.85q0,3.49-3.49,19.09-3.9,17.85-3.9,22a6.65,6.65,0,0,0,1.11,4.11,3.51,3.51,0,0,0,2.93,1.47c1.86,0,4.06-1.14,6.62-3.42a111.34,111.34,0,0,0,10.24-11.08,4.9,4.9,0,0,1,3.77-2,3.23,3.23,0,0,1,2.85,1.67,8.63,8.63,0,0,1,1.05,4.6c0,3.72-.89,6.6-2.65,8.64A61.68,61.68,0,0,1,376,117a27,27,0,0,1-15.68,4.73q-6.69,0-9.82-5.15T347.37,102q-2.37,9.46-7.1,14.56t-10.18,5.08Q323.82,121.68,319.85,115.9Z" style="fill:#ff073a"/><path d="M445.26,91.58a8.63,8.63,0,0,1,1.05,4.6c0,3.72-.89,6.6-2.65,8.64a51,51,0,0,1-14.56,11.57A40.39,40.39,0,0,1,409,121.68q-14.62,0-22.71-7.94T378.17,92a40.22,40.22,0,0,1,4-17.9,33,33,0,0,1,11.22-13.17,28.2,28.2,0,0,1,16.23-4.88q8.08,0,13,4.81t4.88,13a22.52,22.52,0,0,1-6.9,16.51q-6.9,6.9-23.34,10.94,3.48,6.41,13.24,6.41,6.27,0,14.28-4.39a47.36,47.36,0,0,0,13.87-11.5,4.87,4.87,0,0,1,3.76-2A3.22,3.22,0,0,1,445.26,91.58ZM398.58,75.7A27.92,27.92,0,0,0,395,90.19v.28q8.22-1.95,13-5.85t4.74-9.06a6.05,6.05,0,0,0-1.47-4.25,5.1,5.1,0,0,0-4-1.6Q402.13,69.71,398.58,75.7Z" style="fill:#ff073a"/><path d="M434.74,119.87c-1.11-1.2-1.67-3.11-1.67-5.71,0-.74.09-2,.28-3.9a305.78,305.78,0,0,1,7.38-46.41q1.13-4.31,3.7-6.06c1.71-1.16,4.48-1.74,8.29-1.74q6,0,6,4.88a22.17,22.17,0,0,1-.28,2.65q-6.27,29.82-7.52,50-.29,4.47-2.65,6.27t-7.39,1.81Q436.42,121.68,434.74,119.87Zm10.73-75.73a9.88,9.88,0,0,1-2.92-7.6,10.27,10.27,0,0,1,3.83-8.15,14.17,14.17,0,0,1,9.54-3.27,13.16,13.16,0,0,1,8.36,2.5,8.51,8.51,0,0,1,3.21,7.11,11.34,11.34,0,0,1-3.62,8.85q-3.63,3.27-9.62,3.27T445.47,44.14Z" style="fill:#ff073a"/></g></g></g></svg>